<?xml version="1.0" encoding="utf-8"?>
<!-- Generator: Adobe Illustrator 21.1.0, SVG Export Plug-In . SVG Version: 6.00 Build 0)  -->
<svg version="1.0" id="Layer_1" xmlns="http://www.w3.org/2000/svg" xmlns:xlink="http://www.w3.org/1999/xlink" x="0px" y="0px"
	 width="57.4px" height="48px" viewBox="0 0 57.4 48" style="enable-background:new 0 0 57.4 48;" xml:space="preserve">
<style type="text/css">
	.st0{fill:#C1E9E9;}
	.st1{fill:#680991;}
</style>
<path class="st0" d="M20.4,0h37L37,48H0L20.4,0z"/>
<path id="join.svg" class="st1" d="M21.1,24.2c-2.1-1.2-4.5-1.8-6.9-1.8C6.8,22.4,0.7,28.1,0,35.5c-0.1,0.7,0.5,1.4,1.2,1.4h0.1
	c0.8,0,1.4-0.7,1.5-1.5c0.7-5.8,5.5-10.1,11.3-10.2c1.8,0,3.7,0.5,5.3,1.3C19.9,25.7,20.5,24.9,21.1,24.2z M22.7,16.6
	c-0.1-4.7-4-8.5-8.7-8.4s-8.5,4-8.4,8.7c0.1,4.7,3.9,8.4,8.6,8.4C19,25.2,22.8,21.3,22.7,16.6z M14.2,22.4c-3.2,0.1-5.9-2.5-5.9-5.7
	c-0.1-3.2,2.5-5.9,5.7-5.9c3.2-0.1,5.9,2.5,5.9,5.7v0.1C19.9,19.7,17.4,22.3,14.2,22.4L14.2,22.4z M28.4,22.4
	c-4.8-0.1-8.8,3.7-8.9,8.5c-0.1,4.8,3.7,8.8,8.5,8.9s8.8-3.7,8.9-8.5c0-0.1,0-0.1,0-0.2C37,26.3,33.2,22.4,28.4,22.4z M32.7,32.6
	h-2.9v2.9H27v-2.9h-2.9v-2.9H27v-2.9h2.9v2.9h2.9L32.7,32.6L32.7,32.6z"/>
</svg>
