<svg fill="#F50" role="presentation" xmlns="http://www.w3.org/2000/svg" viewBox="0 0 86.6 79.8" preserveAspectRatio="xMidYMax meet"><path d="M36.9 46.9c-12.9 0-23.4-10.5-23.4-23.4S24 0 36.9 0s23.4 10.5 23.4 23.4-10.5 23.5-23.4 23.5zm0-38.9c-8.5 0-15.5 6.9-15.5 15.5s7 15.4 15.5 15.4S52.4 32 52.4 23.4 45.4 8 36.9 8z"></path><path d="M69.8 79.7c-2.2 0-4-1.8-4-4 0-15.9-12.9-28.9-28.9-28.9S8 59.8 8 75.7c0 2.2-1.8 4-4 4s-4-1.8-4-4c0-20.3 16.5-36.8 36.8-36.8s36.8 16.5 36.8 36.8c.1 2.2-1.6 4-3.8 4z"></path></svg>