<svg fill="#F50" role="presentation" xmlns="http://www.w3.org/2000/svg" viewBox="0 0 86.6 79.8" preserveAspectRatio="xMidYMax meet"><path d="M83.1 42.9L43.7 3.5c-4.7-4.7-12.3-4.7-17 0L3.5 26.7c-4.7 4.7-4.7 12.3 0 17l27.9 27.9c11 11 29.1 11 40.1 0L83.1 60c4.7-4.8 4.7-12.4 0-17.1zm-9 13.7l-7.6 7.6c-8.3 8.3-21.8 8.3-30.1 0L12.5 40.4c-2.9-2.9-2.9-7.6 0-10.4L30 12.5c2.9-2.9 7.6-2.9 10.4 0l33.7 33.7c2.8 2.9 2.8 7.6 0 10.4z"></path><path d="M44.4 31.7l-3.1 3.1c-1.7 1.7-4.4 1.7-6 0l-6-6c-1.7-1.7-1.7-4.4 0-6l3.1-3.1c1.7-1.7 4.4-1.7 6 0l6 6c1.7 1.6 1.7 4.3 0 6z"></path></svg>