<?xml version="1.0" encoding="utf-8"?>
<!-- Generator: Adobe Illustrator 21.1.0, SVG Export Plug-In . SVG Version: 6.00 Build 0)  -->
<svg version="1.0" id="Layer_1" xmlns="http://www.w3.org/2000/svg" xmlns:xlink="http://www.w3.org/1999/xlink" x="0px" y="0px"
	 width="57.4px" height="48px" viewBox="0 0 57.4 48" style="enable-background:new 0 0 57.4 48;" xml:space="preserve">
<style type="text/css">
	.st0{fill:#C1E9E9;}
	.st1{fill:#680991;}
</style>
<path class="st0" d="M20.4,0h37L37,48H0L20.4,0z"/>
<path id="phone.svg" class="st1" d="M19.5,8H6.8C5,8,3.6,9.4,3.6,11.2v25.6C3.6,38.6,5,40,6.8,40h12.7c1.8,0,3.2-1.4,3.2-3.2V11.2
	C22.7,9.4,21.2,8,19.5,8z M19.5,36.8H6.8V11.2h12.7V36.8z M13.1,33c-0.9,0-1.6,0.7-1.6,1.6s0.7,1.6,1.6,1.6c0.9,0,1.6-0.7,1.6-1.6
	l0,0C14.7,33.7,14,33,13.1,33C13.2,33,13.1,33,13.1,33z"/>
</svg>
