<svg xmlns="http://www.w3.org/2000/svg" width="46" height="46" viewBox="0 0 46 46" role="img" aria-labelledby="twitter-icon">
                <title id="twitter-icon">Twitter</title>
                <path class="button--svg__border" fill="#E5E5E5" d="M23 3c11.028 0 20 8.972 20 20s-8.972 20-20 20S3 34.028 3 23 11.972 3 23 3m0-2C10.85 1 1 10.85 1 23s9.85 22 22 22 22-9.85 22-22S35.15 1 23 1z"></path>
                <path fill="#5EA9DE" d="M31.52 17.716c-.627.278-1.302.466-2.008.55.722-.432 1.275-1.116 1.536-1.933-.676.4-1.422.69-2.22.847-.637-.68-1.546-1.103-2.552-1.103-1.93 0-3.494 1.565-3.494 3.495 0 .273.03.54.09.796-2.904-.146-5.48-1.536-7.205-3.653-.3.52-.473 1.12-.473 1.76 0 1.212.617 2.28 1.555 2.908-.576-.017-1.115-.176-1.587-.436v.043c0 1.694 1.205 3.107 2.805 3.427-.295.082-.603.123-.923.123-.225 0-.444-.02-.657-.062.445 1.388 1.736 2.4 3.266 2.425-1.196.94-2.704 1.498-4.34 1.498-.283 0-.562-.013-.835-.046 1.55.99 3.385 1.568 5.36 1.568 6.43 0 9.944-5.323 9.944-9.94 0-.153-.003-.306-.01-.454.684-.492 1.278-1.108 1.745-1.81"></path>
              </svg>