<svg xmlns="http://www.w3.org/2000/svg" width="46" height="46" viewBox="0 0 46 46" role="img" aria-labelledby="youtube-icon">
                <title id="youtube-icon">YouTube</title>
                <path class="button--svg__border" fill="#E5E5E5" d="M23 3c11.028 0 20 8.972 20 20s-8.972 20-20 20S3 34.028 3 23 11.972 3 23 3m0-2C10.85 1 1 10.85 1 23s9.85 22 22 22 22-9.85 22-22S35.15 1 23 1z"></path>
                <path fill="#E52E28" d="M27.68 23c0-.3-.12-.52-.364-.657l-6.24-3.9c-.253-.163-.517-.172-.793-.025-.27.147-.402.374-.402.683v7.803c0 .31.136.537.404.682.13.067.256.1.378.1.164 0 .3-.042.416-.122l6.24-3.9c.243-.14.365-.36.365-.66zm6.242 0c0 .78-.004 1.39-.012 1.83-.008.438-.043.993-.104 1.662-.06.672-.15 1.27-.274 1.8-.13.592-.41 1.092-.84 1.5-.43.405-.935.64-1.512.705-1.804.203-4.53.303-8.18.303-3.65 0-6.375-.1-8.18-.304-.576-.064-1.082-.3-1.517-.706-.435-.407-.717-.907-.847-1.5-.114-.527-.2-1.127-.263-1.8-.06-.668-.095-1.223-.103-1.662-.008-.438-.012-1.05-.012-1.828 0-.78.004-1.39.012-1.828.008-.44.042-.995.103-1.665.062-.67.152-1.27.274-1.797.13-.593.41-1.093.84-1.5.432-.407.936-.642 1.513-.707 1.804-.203 4.53-.305 8.18-.305 3.648 0 6.375.102 8.18.305.576.065 1.08.3 1.516.707.436.406.718.906.85 1.5.112.528.2 1.127.26 1.797.062.67.097 1.226.104 1.665.008.438.012 1.048.012 1.83z"></path>
              </svg>